<?xml version="1.0" encoding="utf-8"?>
<!-- Generator: Adobe Illustrator 18.1.1, SVG Export Plug-In . SVG Version: 6.00 Build 0)  -->
<!DOCTYPE svg PUBLIC "-//W3C//DTD SVG 1.1//EN" "http://www.w3.org/Graphics/SVG/1.1/DTD/svg11.dtd">
<svg version="1.1" id="Layer_1" xmlns="http://www.w3.org/2000/svg" xmlns:xlink="http://www.w3.org/1999/xlink" x="0px" y="0px"
	 viewBox="0 0 413 93" enable-background="new 0 0 413 93" xml:space="preserve">
	<path fill="#FFFFFF" d="M261,23.8c-4.5,0-8.2,1.4-11,4.3c-2.9,2.8-4.3,6.7-4.3,11.5c0,3.2,0.7,6,2,8.6c1.3,2.6,3.3,4.5,5.8,5.9
		c2.5,1.3,5.2,2,7.9,2c1.4,0,2.8-0.2,4.1-0.5c1.3-0.3,2.6-0.9,3.8-1.6c1.2-0.7,2.3-1.6,3.4-2.8c0.6-0.7,1.4-1.8,2.1-3.1l-6.8-2.7
		c-0.8,1.4-1.7,2.5-2.7,3.2c-1,0.7-2.3,1.1-3.8,1.1c-2,0-3.6-0.7-4.9-2.1c-1.3-1.4-2-3.5-2.1-6.3h20.9c0.1-1.2,0.1-2.1,0.1-2.7
		c0-4.7-1.3-8.3-4-10.9C268.9,25.1,265.4,23.8,261,23.8z M254.5,36.5c0.2-2.4,0.9-4.3,2.1-5.5c1.2-1.2,2.8-1.9,4.6-1.9
		c1.9,0,3.5,0.6,4.7,1.9c1.3,1.3,2,3.1,2.1,5.5H254.5z M287,31.8v-7.5h-8.4v31.2h8.4V38.6c0.9-2.2,2.3-3.9,4.1-5.1
		c1.8-1.2,3.8-1.8,5.8-1.8h0.8v-8c-2,0.1-3.8,0.7-5.4,1.8C290.7,26.7,288.9,28.8,287,31.8z M322.3,39.8c-1.6-1.1-4.5-2.1-8.5-2.9
		c-2.9-0.6-4.8-1.2-5.5-1.9c-0.7-0.6-1.1-1.4-1.1-2.2c0-0.9,0.5-1.8,1.4-2.5c0.9-0.7,2.1-1.1,3.6-1.1c0.9,0,1.8,0.1,2.6,0.4
		c0.9,0.3,2.5,1.1,4.8,2.4l4.8-3.8c-2.2-1.7-4.3-2.9-6.2-3.5c-1.9-0.6-4-0.9-6.1-0.9c-3.8,0-6.8,1-9.2,2.9c-2.3,2-3.5,4.2-3.5,6.7
		c0,2.4,0.9,4.5,2.7,6.2c1.8,1.7,4.9,3,9.2,3.7c2.6,0.4,4.3,1,5.1,1.6c0.8,0.6,1.2,1.4,1.2,2.1c0,0.8-0.4,1.5-1.3,2.2
		c-0.9,0.6-2.2,1-4.1,1c-1.4,0-2.8-0.2-4.1-0.7c-1.3-0.5-2.8-1.3-4.4-2.5l-5.1,3.3c2,2,4.1,3.4,6.2,4.3c2.1,0.9,4.5,1.3,7.3,1.3
		c4.4,0,7.8-1,10.2-2.9c2.3-1.9,3.5-4.3,3.5-7.1C325.6,43.4,324.5,41.3,322.3,39.8z M342.6,23.8c-4.5,0-8.2,1.4-11,4.3
		c-2.9,2.8-4.3,6.7-4.3,11.5c0,3.2,0.7,6,2,8.6c1.3,2.6,3.3,4.5,5.8,5.9c2.5,1.3,5.2,2,7.9,2c1.4,0,2.8-0.2,4.1-0.5
		c1.3-0.3,2.6-0.9,3.8-1.6c1.2-0.7,2.3-1.6,3.4-2.8c0.6-0.7,1.4-1.8,2.1-3.1l-6.8-2.7c-0.8,1.4-1.7,2.5-2.7,3.2
		c-1,0.7-2.3,1.1-3.8,1.1c-2,0-3.6-0.7-4.9-2.1c-1.3-1.4-2-3.5-2.1-6.3H357c0.1-1.2,0.1-2.1,0.1-2.7c0-4.7-1.3-8.3-4-10.9
		C350.5,25.1,347,23.8,342.6,23.8z M336.1,36.5c0.2-2.4,0.9-4.3,2.1-5.5c1.2-1.2,2.8-1.9,4.6-1.9c1.9,0,3.5,0.6,4.7,1.9
		c1.3,1.3,2,3.1,2.1,5.5H336.1z M358.4,55.5h9.1V46h-9.1V55.5z M374.6,19.1h8.4v-8h-8.4V19.1z M374.6,57.9c0,1.5-0.4,2.6-1.3,3.3
		c-0.9,0.7-2.5,1.1-5,1.2V68h3.8c2.4,0,4.5-0.4,6.2-1.2c1.7-0.8,2.9-1.9,3.6-3.2c0.7-1.3,1.1-2.8,1.1-4.6V24.3h-8.4V57.9z
		 M409.6,39.8c-1.6-1.1-4.5-2.1-8.5-2.9c-2.9-0.6-4.8-1.2-5.5-1.9c-0.7-0.6-1.1-1.4-1.1-2.2c0-0.9,0.5-1.8,1.4-2.5
		c0.9-0.7,2.1-1.1,3.6-1.1c0.9,0,1.8,0.1,2.6,0.4c0.9,0.3,2.5,1.1,4.8,2.4l4.8-3.8c-2.2-1.7-4.3-2.9-6.2-3.5
		c-1.9-0.6-4-0.9-6.1-0.9c-3.8,0-6.8,1-9.2,2.9c-2.3,2-3.5,4.2-3.5,6.7c0,2.4,0.9,4.5,2.7,6.2c1.8,1.7,4.9,3,9.2,3.7
		c2.6,0.4,4.3,1,5.1,1.6c0.8,0.6,1.2,1.4,1.2,2.1c0,0.8-0.4,1.5-1.3,2.2c-0.9,0.6-2.2,1-4.1,1c-1.4,0-2.8-0.2-4.1-0.7
		c-1.3-0.5-2.8-1.3-4.4-2.5l-5.1,3.3c2,2,4.1,3.4,6.2,4.3c2.1,0.9,4.5,1.3,7.3,1.3c4.4,0,7.8-1,10.2-2.9c2.3-1.9,3.5-4.3,3.5-7.1
		C413,43.4,411.9,41.3,409.6,39.8z M157.6,45.3c-0.3-2.2-0.5-4.1-0.6-5.8c-0.2-2.4-0.6-5.9-1.2-10.6c-0.2-1.5-0.5-2.8-0.9-4.1
		c-0.4-1.3-0.7-1.9-1-2c-0.2-0.1-2.3,0.3-2.9,1.2c-0.4,0.5-0.7,1-0.8,1.3c-0.1,0.4-0.1,0.9,0,1.7c0,0.9,0.1,4.3,0.1,10.4
		c0,6.1,0,10.9-0.1,14.5c-0.1,3.2-0.1,4.8,0.1,5c0.2,0.2,1.8,0.3,2.9,0.3c1.1,0,1.9,0,2.4-0.2c0.8-0.2,1.4-0.8,1.6-1.6
		c0.3-0.8,1.1-2.3,1-4.3C158,49.5,157.8,47.5,157.6,45.3z M237.2,24.5c-2.3-0.9-4.8-1-7.2-0.4c-2.5,0.6-4.4,1.9-5.8,3.8
		c-0.9,1.3-1.5,2-1.9,2c-0.4,0.1-1.1-0.7-2.3-2.3c-1.1-1.5-2-2.5-2.8-3.1c-0.7-0.4-1.8-0.7-3.3-0.8c-1.5-0.1-2.8,0.1-3.9,0.6
		c-0.8,0.3-1.4,0.5-1.6,0.4c-0.3-0.1-0.6-0.3-1-0.8c-0.5-0.6-0.9-0.9-1.3-1c-0.3-0.1-0.8,0.1-1.4,0.6c-0.6,0.4-1.1,0.5-1.7,0.4
		c-0.9-0.2-1.6,0-2.2,0.7c-0.1,0-0.1-0.1-0.2-0.1c-2.3-0.9-4.8-1-7.2-0.4c-2.5,0.6-4.4,1.9-5.8,3.8c-0.9,1.3-1.5,2-1.9,2
		c-0.4,0.1-1.1-0.7-2.3-2.3c-1.1-1.5-2-2.5-2.8-3.1c-0.7-0.4-1.8-0.7-3.3-0.8c-1.5-0.1-2.8,0.1-3.9,0.6c-0.8,0.3-1.4,0.5-1.6,0.4
		c-0.3-0.1-0.6-0.3-1-0.8c-0.5-0.6-0.9-0.9-1.3-1c-0.3-0.1-0.8,0.1-1.4,0.6c-0.6,0.4-1.1,0.5-1.7,0.4c-1.2-0.3-2.1,0.2-2.8,1.5
		c-0.7,1.3-0.8,2.8-0.4,4.6c0.3,1.3,0.3,2.8-0.1,4.3c-0.2,1.2-0.4,4.8-0.5,10.7c-0.1,5.9,0,9.6,0.3,10.9l0.3,1.4
		c2.6,0.1,5.2,0.1,7.9,0.1l0.3-1.7c0.2-1.2,0.1-2.6-0.3-4.2c-0.3-1.7-0.3-3.4,0.1-5c0.3-1.7,0.5-4,0.5-6.8c0-2.2,0.1-3.5,0.2-4
		c0.1-0.5,0.6-1.1,1.4-1.9c0.9-0.9,1.5-1.4,1.9-1.4c0.4-0.1,0.9,0.3,1.6,0.9c0.8,0.9,1.3,2,1.5,3.3c0.2,1.2,0.4,4.3,0.5,9.1
		c0.2,6.2,0.4,9.5,0.7,9.8c0.3,0.2,1.4,0.3,3.4,0.3h1.9c0.4,0,0.8-0.1,1.3-0.4c0.4-0.3,0.7-0.5,0.9-0.7c0.1-0.2,0.3-0.8,0.5-1.6
		c0.2-0.9,0.3-1.7,0.3-2.4c0-0.8,0.1-2,0.2-3.7c0.2-4.2,0.4-6.9,0.6-8c0.3-1.1,0.9-2.2,1.8-3.2c0.9-0.9,1.8-1.4,2.5-1.5
		c0.7,0,1.5,0.4,2.4,1.4c0.9,1,1.6,2.5,2,4.4c0.4,1.9,0.6,4.9,0.6,8.9c0.1,4.4,0.2,7.1,0.3,8c0.2,0.7,0.3,1.1,0.5,1.2
		c0.2,0.1,0.7,0.2,1.4,0.2c1.1,0,2.2-0.3,3.5-0.9c0,0,0,0,0,0c1.4,0,2.7,0,4.1,0l0.3-1.7c0.2-1.2,0.1-2.6-0.3-4.2
		c-0.3-1.7-0.3-3.4,0.1-5c0.3-1.7,0.5-4,0.5-6.8c0-2.2,0.1-3.5,0.2-4c0.1-0.5,0.6-1.1,1.4-1.9c0.9-0.9,1.5-1.4,1.9-1.4
		c0.4-0.1,0.9,0.3,1.6,0.9c0.8,0.9,1.3,2,1.5,3.3c0.2,1.2,0.4,4.3,0.5,9.1c0.2,6.2,0.4,9.5,0.7,9.8c0.3,0.2,1.4,0.3,3.4,0.3h1.9
		c0.4,0,0.8-0.1,1.3-0.4c0.4-0.3,0.7-0.5,0.9-0.7c0.1-0.2,0.3-0.8,0.5-1.6c0.2-0.9,0.3-1.7,0.3-2.4c0-0.8,0.1-2,0.2-3.7
		c0.2-4.2,0.4-6.9,0.6-8c0.3-1.1,0.9-2.2,1.8-3.2c0.9-0.9,1.8-1.4,2.5-1.5c0.7,0,1.5,0.4,2.4,1.4c0.9,1,1.6,2.5,2,4.4
		c0.4,1.9,0.6,4.9,0.6,8.9c0.1,4.4,0.2,7.1,0.3,8c0.2,0.7,0.3,1.1,0.5,1.2c0.2,0.1,0.7,0.2,1.4,0.2c1.1,0,2.2-0.3,3.5-0.9
		c1.1-0.7,1.8-1.6,2-2.9c0.2-1.3,0.3-5,0.3-11.1c0-6.6-0.4-11.2-1.1-13.7C240.6,27.1,239.2,25.3,237.2,24.5z M87.8,0L64.5,13.3
		L41.2,0H28.2L0,28.3L64.5,93L129,28.3L100.8,0H87.8z M64.5,85.2L7.8,28.3L30.5,5.5h9.3l24.7,14.2L89.2,5.5h9.3l22.7,22.7
		L64.5,85.2z M91,24.3c-1.8-0.7-3.6-0.8-5.5-0.3c-1.9,0.5-3.4,1.5-4.4,2.9c-0.7,1-1.2,1.5-1.5,1.5c-0.3,0-0.9-0.6-1.7-1.8
		c-0.8-1.1-1.5-1.9-2.2-2.4c-0.6-0.3-1.4-0.5-2.5-0.6c-1.1,0-2.1,0.1-3,0.4c-0.6,0.3-1,0.4-1.2,0.3c-0.2,0-0.4-0.3-0.7-0.6
		c-0.4-0.5-0.7-0.7-1-0.8c-0.3,0-0.6,0.1-1.1,0.4c-0.4,0.3-0.8,0.4-1.3,0.3c-0.6-0.2-1.2,0-1.7,0.5c0,0-0.1,0-0.1-0.1
		c-1.8-0.7-3.6-0.8-5.5-0.3c-1.9,0.5-3.4,1.5-4.4,2.9c-0.7,1-1.2,1.5-1.5,1.5c-0.3,0-0.9-0.6-1.7-1.8c-0.8-1.1-1.5-1.9-2.2-2.4
		c-0.6-0.3-1.4-0.5-2.5-0.6c-1.1,0-2.1,0.1-3,0.4c-0.6,0.3-1,0.4-1.2,0.3c-0.2,0-0.4-0.3-0.7-0.6c-0.4-0.5-0.7-0.7-1-0.8
		c-0.3,0-0.6,0.1-1.1,0.4c-0.4,0.3-0.8,0.4-1.3,0.3c-0.9-0.2-1.6,0.2-2.1,1.2c-0.5,1-0.6,2.2-0.3,3.5c0.3,1,0.2,2.1-0.1,3.3
		c-0.2,0.9-0.3,3.7-0.3,8.2c-0.1,4.5,0,7.3,0.2,8.3l0.2,1.1c2,0,4,0.1,6,0.1l0.2-1.3c0.1-0.9,0.1-2-0.2-3.2
		c-0.2-1.3-0.2-2.6,0.1-3.8c0.3-1.3,0.4-3,0.4-5.2c0-1.7,0.1-2.7,0.2-3.1c0.1-0.4,0.5-0.9,1-1.5c0.7-0.7,1.2-1,1.5-1.1
		c0.3,0,0.7,0.2,1.2,0.7c0.6,0.7,1,1.6,1.1,2.5c0.2,0.9,0.3,3.3,0.4,7c0.2,4.8,0.3,7.3,0.5,7.5c0.2,0.2,1.1,0.3,2.6,0.3h1.5
		c0.3,0,0.6-0.1,1-0.3c0.3-0.2,0.6-0.4,0.7-0.5c0.1-0.2,0.2-0.6,0.3-1.2c0.1-0.7,0.2-1.3,0.2-1.8c0-0.6,0.1-1.5,0.2-2.8
		c0.1-3.2,0.3-5.3,0.5-6.1c0.2-0.8,0.6-1.6,1.4-2.5c0.7-0.7,1.3-1.1,1.9-1.1c0.5,0,1.1,0.3,1.8,1.1c0.7,0.8,1.2,1.9,1.5,3.4
		c0.3,1.5,0.4,3.7,0.4,6.8c0,3.4,0.1,5.4,0.3,6.1c0.1,0.5,0.3,0.8,0.4,0.9c0.1,0.1,0.5,0.2,1,0.2c0.8,0,1.7-0.2,2.7-0.7
		c0,0,0,0,0,0c1,0,2,0,3.1,0l0.2-1.3c0.1-0.9,0.1-2-0.2-3.2c-0.2-1.3-0.2-2.6,0.1-3.8c0.3-1.3,0.4-3,0.4-5.2c0-1.7,0.1-2.7,0.2-3.1
		c0.1-0.4,0.5-0.9,1-1.5c0.7-0.7,1.2-1,1.5-1.1c0.3,0,0.7,0.2,1.2,0.7c0.6,0.7,1,1.6,1.1,2.5c0.2,0.9,0.3,3.3,0.4,7
		c0.2,4.8,0.3,7.3,0.5,7.5c0.2,0.2,1.1,0.3,2.6,0.3H79c0.3,0,0.6-0.1,1-0.3c0.3-0.2,0.6-0.4,0.7-0.5c0.1-0.2,0.2-0.6,0.3-1.2
		c0.1-0.7,0.2-1.3,0.2-1.8c0-0.6,0.1-1.5,0.2-2.8c0.1-3.2,0.3-5.3,0.5-6.1c0.2-0.8,0.6-1.6,1.4-2.5c0.7-0.7,1.3-1.1,1.9-1.1
		c0.5,0,1.1,0.3,1.8,1.1c0.7,0.8,1.2,1.9,1.5,3.4c0.3,1.5,0.4,3.7,0.4,6.8c0,3.4,0.1,5.4,0.3,6.1c0.1,0.5,0.3,0.8,0.4,0.9
		c0.1,0.1,0.5,0.2,1,0.2c0.8,0,1.7-0.2,2.7-0.7c0.8-0.5,1.4-1.3,1.5-2.2c0.2-1,0.3-3.8,0.3-8.5c0-5-0.3-8.5-0.8-10.5
		C93.7,26.3,92.6,25,91,24.3z"/>
</svg>
