<?xml version="1.0" encoding="utf-8"?>
<!-- Generator: Adobe Illustrator 18.1.1, SVG Export Plug-In . SVG Version: 6.00 Build 0)  -->
<!DOCTYPE svg PUBLIC "-//W3C//DTD SVG 1.1//EN" "http://www.w3.org/Graphics/SVG/1.1/DTD/svg11.dtd">
<svg version="1.1" id="logo" xmlns="http://www.w3.org/2000/svg" xmlns:xlink="http://www.w3.org/1999/xlink" x="0px" y="0px"
	 viewBox="0 0 466.7 335.3" enable-background="new 0 0 466.7 335.3" xml:space="preserve">
   <polygon id="outer" fill="none" stroke="#F5DA55" stroke-width="20" stroke-miterlimit="10" points="360.5,10 320.1,10 233.3,59.6
	146.6,10 106.1,10 14.1,102 233.3,321.2 452.5,102 "/>
  <g>
  	<path fill="#F5DA55" d="M139.4,85c1.7-1.2,3-1.8,3.9-1.6c0.9,0.2,2.1,1.1,3.4,2.8c1.1,1.4,2,2.1,2.6,2.3c0.7,0.2,2.2-0.2,4.5-1.2
  		c3.2-1.2,6.8-1.8,10.8-1.6c4,0.2,7,0.8,9,2.1c2.3,1.5,4.9,4.4,7.8,8.5c3.1,4.4,5.1,6.6,6.2,6.4c1.1,0,2.8-1.8,5.3-5.5
  		c3.8-5.2,9.2-8.7,16-10.5c6.8-1.8,13.5-1.4,19.9,1c5.7,2.5,9.5,7.2,11.5,14.4c2,7.1,3,19.7,3,37.8c0,16.9-0.3,27.1-0.9,30.6
  		c-0.6,3.5-2.5,6.2-5.5,8c-3.5,1.7-6.7,2.5-9.7,2.5c-2,0-3.3-0.2-3.8-0.6c-0.5-0.4-1-1.5-1.5-3.3c-0.5-2.6-0.8-10-0.9-22.1
  		c0-10.9-0.5-19-1.6-24.4c-1.1-5.4-2.9-9.4-5.5-12.2c-2.5-2.6-4.6-3.9-6.6-3.8c-1.9,0.1-4.2,1.4-6.8,4c-2.6,2.9-4.3,5.9-4.9,8.9
  		s-1.3,10.3-1.7,22c-0.3,4.8-0.5,8.2-0.6,10.2c-0.1,2.1-0.3,4.3-0.8,6.7c-0.5,2.4-0.9,3.9-1.3,4.5c-0.4,0.6-1.2,1.3-2.4,2
  		c-1.2,0.7-2.4,1-3.5,1c-1.1,0-2.8,0-5.3,0c-5.5,0-8.7-0.3-9.4-0.9c-0.6-0.8-1.2-9.7-1.8-26.9c-0.3-13.3-0.8-21.7-1.4-25.1
  		c-0.6-3.4-2-6.4-4.1-9c-1.8-1.8-3.3-2.7-4.4-2.5c-1.1,0.2-2.8,1.5-5.3,3.9c-2.1,2.1-3.4,3.9-3.8,5.3c-0.4,1.4-0.6,5.1-0.6,11
  		c0,8-0.5,14.3-1.4,18.9c-0.9,4.4-1,9-0.2,13.8c0.9,4.4,1.2,8.3,0.7,11.5l-0.7,4.6c-7.2,0-14.4-0.1-21.6-0.2l-0.7-3.9
  		c-0.8-3.7-1-13.7-0.8-30s0.7-26.2,1.3-29.6c1.1-4.3,1.1-8.3,0.2-12c-1.2-4.8-0.9-8.9,1-12.5c1.9-3.6,4.5-5,7.7-4.3
  		C136.3,86.4,137.9,86,139.4,85z"/>
  	<path fill="#F5DA55" d="M239.9,85c1.7-1.2,3-1.8,3.9-1.6c0.9,0.2,2.1,1.1,3.4,2.8c1.1,1.4,2,2.1,2.6,2.3c0.7,0.2,2.2-0.2,4.5-1.2
  		c3.2-1.2,6.8-1.8,10.8-1.6c4,0.2,7,0.8,9,2.1c2.3,1.5,4.9,4.4,7.8,8.5c3.1,4.4,5.1,6.6,6.2,6.4c1.1,0,2.8-1.8,5.3-5.5
  		c3.8-5.2,9.2-8.7,16-10.5c6.8-1.8,13.5-1.4,19.9,1c5.7,2.5,9.5,7.2,11.5,14.4c2,7.1,3,19.7,3,37.8c0,16.9-0.3,27.1-0.9,30.6
  		c-0.6,3.5-2.5,6.2-5.5,8c-3.5,1.7-6.7,2.5-9.7,2.5c-2,0-3.3-0.2-3.8-0.6c-0.5-0.4-1-1.5-1.5-3.3c-0.5-2.6-0.8-10-0.9-22.1
  		c0-10.9-0.5-19-1.6-24.4c-1.1-5.4-2.9-9.4-5.5-12.2c-2.5-2.6-4.6-3.9-6.6-3.8c-1.9,0.1-4.2,1.4-6.8,4c-2.6,2.9-4.3,5.9-4.9,8.9
  		s-1.3,10.3-1.7,22c-0.3,4.8-0.5,8.2-0.6,10.2c-0.1,2.1-0.3,4.3-0.8,6.7c-0.5,2.4-0.9,3.9-1.3,4.5c-0.4,0.6-1.2,1.3-2.4,2
  		c-1.2,0.7-2.4,1-3.5,1c-1.1,0-2.8,0-5.3,0c-5.5,0-8.7-0.3-9.4-0.9c-0.6-0.8-1.2-9.7-1.8-26.9c-0.3-13.3-0.8-21.7-1.4-25.1
  		c-0.6-3.4-2-6.4-4.1-9c-1.8-1.8-3.3-2.7-4.4-2.5c-1.1,0.2-2.8,1.5-5.3,3.9c-2.1,2.1-3.4,3.9-3.8,5.3c-0.4,1.4-0.6,5.1-0.6,11
  		c0,8-0.5,14.3-1.4,18.9c-0.9,4.4-1,9-0.2,13.8c0.9,4.4,1.2,8.3,0.7,11.5l-0.7,4.6c-7.2,0-14.4-0.1-21.6-0.2l-0.7-3.9
  		c-0.8-3.7-1-13.7-0.8-30s0.7-26.2,1.3-29.6c1.1-4.3,1.1-8.3,0.2-12c-1.2-4.8-0.9-8.9,1-12.5c1.9-3.6,4.5-5,7.7-4.3
  		C236.8,86.4,238.4,86,239.9,85z"/>
  </g>
</svg>
